<svg width="448" height="27" viewBox="0 0 448 27" fill="none" xmlns="http://www.w3.org/2000/svg">
<g opacity="0.61">
<path d="M144.396 23.6889C144.396 24.0183 144.339 24.324 144.224 24.6063C144.12 24.8886 143.974 25.1356 143.786 25.3473C143.609 25.5472 143.396 25.706 143.146 25.8236C142.896 25.9412 142.63 26 142.349 26C142.099 26 141.843 25.9471 141.583 25.8412C141.333 25.7354 141.109 25.5648 140.911 25.3296L138.066 7.82907L126.063 25.6472H122L134.003 2.30722C134.003 1.83678 134.117 1.41338 134.347 1.03702C134.586 0.648907 134.889 0.36076 135.253 0.172582C135.639 -0.00383514 136.035 -0.0449991 136.441 0.0490899C136.847 0.131418 137.196 0.343118 137.488 0.68419L140.333 18.1671L152.335 0.348998H156.399L144.396 23.6889Z" fill="#20273C"/>
<path d="M153.226 25.6472H149.163L161.166 0.348998H165.229L153.226 25.6472Z" fill="#20273C"/>
<path d="M181.467 25.6472H175.7L166.558 15.3091H163.697L175.7 10.687H178.56L187.703 0.348998H193.47L169.949 12.9981L181.467 25.6472ZM162.072 25.6472H158.009L170.012 0.348998H174.075L162.072 25.6472Z" fill="#20273C"/>
<path d="M205.973 23.3361C205.973 23.6654 205.921 23.9712 205.817 24.2535C205.713 24.5357 205.567 24.7827 205.379 24.9944C205.192 25.1944 204.973 25.3531 204.723 25.4708C204.473 25.5884 204.207 25.6472 203.926 25.6472H194.767C193.903 25.6472 193.027 25.5413 192.142 25.3296C191.256 25.1179 190.397 24.7945 189.563 24.3593C188.74 23.9124 187.964 23.3479 187.234 22.6657C186.505 21.9836 185.864 21.1779 185.312 20.2488C184.77 19.3079 184.343 18.2377 184.03 17.038C183.718 15.8266 183.562 14.48 183.562 12.9981L195.565 0.348998H199.628L187.625 12.9981C187.625 14.2918 187.781 15.3856 188.094 16.2794C188.417 17.1733 188.823 17.9201 189.313 18.5199C189.803 19.1197 190.339 19.5902 190.923 19.9313C191.506 20.2723 192.058 20.5252 192.579 20.6899C193.111 20.8545 193.574 20.9604 193.97 21.0074C194.377 21.0427 194.642 21.0603 194.767 21.0603H201.91L213.913 0.348998H217.976L205.973 23.3361Z" fill="#20273C"/>
<path d="M231.292 25.6472H212.756C212.464 25.6472 212.193 25.5884 211.943 25.4708C211.693 25.3531 211.475 25.1944 211.287 24.9944C211.11 24.7827 210.969 24.5357 210.865 24.2535C210.761 23.9712 210.709 23.6654 210.709 23.3361L222.712 0.348998H226.775L214.772 21.0603H231.292V25.6472Z" fill="#20273C"/>
<path d="M256.267 25.6472H252.203V19.4373H237.918V25.6472H233.855V12.9981C233.855 11.1516 246.139 9.45211 246.702 7.89964C247.264 6.34717 248.046 5.01228 249.046 3.89498C250.046 2.77767 251.229 1.90735 252.594 1.28401C253.959 0.660668 255.449 0.348998 257.064 0.348998H266.222C266.503 0.348998 266.769 0.407804 267.019 0.525415C267.269 0.643026 267.488 0.807682 267.676 1.01938C267.863 1.23108 268.009 1.47807 268.113 1.76033C268.217 2.0426 268.269 2.34251 268.269 2.66006L256.267 25.6472ZM237.918 14.8505H252.203L264.206 4.93584H257.064C256.939 4.93584 256.673 4.95936 256.267 5.0064C255.871 5.04169 255.407 5.14166 254.876 5.30631C254.355 5.47097 253.802 5.72383 253.219 6.0649C252.635 6.40598 252.099 6.87642 251.609 7.47624C251.119 8.07605 250.713 8.82877 250.39 9.73437C250.078 10.6282 237.918 11.7161 237.918 12.9981V14.8505Z" fill="#20273C"/>
<path d="M282.538 18.2024C282.538 19.108 282.434 19.9254 282.226 20.6546C282.028 21.372 281.762 22.0071 281.429 22.5599C281.095 23.1126 280.705 23.5831 280.257 23.9712C279.809 24.3593 279.345 24.6769 278.866 24.9239C278.386 25.1708 277.897 25.3531 277.397 25.4708C276.907 25.5884 276.443 25.6472 276.006 25.6472H260.33V21.0603H276.006C276.787 21.0603 277.391 20.8016 277.819 20.2841C278.256 19.7666 278.475 19.0727 278.475 18.2024C278.475 17.779 278.418 17.3909 278.303 17.038C278.188 16.6852 278.022 16.3794 277.803 16.1207C277.595 15.8619 277.334 15.662 277.022 15.5208C276.719 15.3797 276.381 15.3091 276.006 15.3091H266.66C266.003 15.3091 265.295 15.1798 264.534 14.921C263.774 14.6505 263.065 14.2212 262.409 13.6332C261.763 13.0451 273.224 12.2748 272.786 11.3221C272.359 10.3695 272.145 9.20512 272.145 7.82907C272.145 6.45302 272.359 5.29455 272.786 4.35366C273.224 3.40101 273.766 2.63066 274.412 2.0426C275.068 1.44278 275.776 1.0135 276.537 0.754757C277.298 0.484251 278.006 0.348998 278.663 0.348998H292.494V4.93584H278.663C277.892 4.93584 277.287 5.20046 276.85 5.72971C276.422 6.25896 276.209 6.95875 276.209 7.82907C276.209 8.71116 276.422 9.41094 276.85 9.92843C277.287 10.4342 277.892 10.687 278.663 10.687H288.04C288.477 10.6988 288.941 10.7694 289.431 10.8987C289.92 11.0163 290.405 11.2045 290.884 11.4633C291.374 11.722 279.835 12.0513 280.272 12.4512C280.71 12.8393 281.095 13.3098 281.429 13.8625C281.773 14.4153 282.044 15.0504 282.242 15.7678C282.439 16.4853 282.538 17.2968 282.538 18.2024Z" fill="#20273C"/>
<path d="M336.786 0.348998L321.032 24.0594C320.949 24.5299 320.761 24.9356 320.469 25.2767C320.178 25.6178 319.823 25.8353 319.407 25.9294C318.98 26.0118 318.573 25.9588 318.188 25.7707C317.813 25.5825 317.516 25.2885 317.297 24.8886L321.86 11.0928L302.403 24.8886C302.225 25.2296 301.981 25.4943 301.668 25.6825C301.366 25.8706 301.038 25.9647 300.683 25.9647C300.194 25.9647 299.761 25.7883 299.386 25.4355C299.011 25.0826 298.782 24.624 298.699 24.0594L306.919 0.348998H311.045L301.731 17.0557L320.141 5.51801C320.318 5.17694 320.558 4.91231 320.86 4.72414C321.173 4.53596 321.506 4.44187 321.86 4.44187C322.215 4.44187 322.543 4.53596 322.845 4.72414C323.147 4.91231 323.397 5.17694 323.595 5.51801L317.969 17.0557L332.66 0.348998H336.786Z" fill="#20273C"/>
<path d="M362.667 8.85229C362.667 9.89903 362.552 10.834 362.323 11.6573C362.094 12.4806 349.779 13.2098 349.383 13.8449C348.997 14.4682 348.549 15.0034 348.039 15.4503C347.528 15.8972 346.991 16.2677 346.429 16.5617C345.877 16.844 345.314 17.0498 344.741 17.1792C344.178 17.3085 343.647 17.3732 343.147 17.3732L351.633 25.6472H345.35L336.88 17.3732H333.957V12.7864H343.147C343.657 12.7393 344.121 12.6217 344.538 12.4335C344.965 12.2336 357.332 11.969 357.635 11.6397C357.947 11.3104 358.187 10.9164 358.354 10.4577C358.52 9.98724 358.604 9.45211 358.604 8.85229V5.95905C358.604 5.70031 358.572 5.50625 358.51 5.37688C358.458 5.23574 358.385 5.13577 358.291 5.07697C358.208 5.0064 358.114 4.96524 358.01 4.95348C357.916 4.94172 357.827 4.93584 357.744 4.93584H344.335L332.332 25.6472H328.268L340.271 2.66006C340.271 2.34251 340.323 2.0426 340.427 1.76033C340.532 1.47807 340.672 1.23108 340.849 1.01938C341.037 0.807682 341.256 0.643026 341.506 0.525415C341.756 0.407804 342.027 0.348998 342.318 0.348998H357.744C358.65 0.348998 359.416 0.537176 360.041 0.913532C360.667 1.27813 361.172 1.74269 361.557 2.30722C361.953 2.86 362.235 3.45981 362.401 4.10668C362.578 4.75354 362.667 5.35924 362.667 5.92377V8.85229Z" fill="#20273C"/>
<path d="M376.733 25.6472H372.669V19.4373H358.385V25.6472H354.321V12.9981C354.321 11.1516 366.606 9.45211 367.168 7.89964C367.731 6.34717 368.512 5.01228 369.512 3.89498C370.513 2.77767 371.695 1.90735 373.06 1.28401C374.425 0.660668 375.915 0.348998 377.53 0.348998H386.688C386.97 0.348998 387.235 0.407804 387.486 0.525415C387.736 0.643026 387.954 0.807682 388.142 1.01938C388.329 1.23108 388.475 1.47807 388.58 1.76033C388.684 2.0426 388.736 2.34251 388.736 2.66006L376.733 25.6472ZM358.385 14.8505H372.669L384.672 4.93584H377.53C377.405 4.93584 377.139 4.95936 376.733 5.0064C376.337 5.04169 375.873 5.14166 375.342 5.30631C374.821 5.47097 374.269 5.72383 373.685 6.0649C373.102 6.40598 372.565 6.87642 372.076 7.47624C371.586 8.07605 371.18 8.82877 370.857 9.73437C370.544 10.6282 358.385 11.7161 358.385 12.9981V14.8505Z" fill="#20273C"/>
<path d="M385.563 25.6472H381.5L393.503 0.348998H397.566L385.563 25.6472Z" fill="#20273C"/>
<path d="M422.572 4.93584H413.617L401.614 25.6472H397.55L409.553 4.93584H400.582V0.348998H422.572V4.93584Z" fill="#20273C"/>
<path d="M429.667 10.687H443.937V0.348998H448L435.997 25.6472H431.934V15.3091H417.665V25.6472H413.601L425.604 0.348998H429.667V10.687Z" fill="#20273C"/>
<path d="M31.2457 0L46.2457 0L33 26.4914H18L31.2457 0Z" fill="#20273C"/>
<path d="M13.2457 0L28.2457 0L15 26.4914H0L13.2457 0Z" fill="#20273C"/>
<path d="M49.2457 0L64.2457 0L51 26.4914H36L49.2457 0Z" fill="#20273C"/>
<path d="M67.2457 0L82.2457 0L69 26.4914H54L67.2457 0Z" fill="#20273C"/>
<path d="M85.2458 0H121.846L108.6 26.4914H72.0001L85.2458 0Z" fill="#20273C"/>
</g>
</svg>
